<?xml version="1.0" encoding="utf-8"?>
<!-- Generator: Adobe Illustrator 24.1.2, SVG Export Plug-In . SVG Version: 6.00 Build 0)  -->
<svg version="1.1" id="レイヤー_1" xmlns="http://www.w3.org/2000/svg" xmlns:xlink="http://www.w3.org/1999/xlink" x="0px"
	 y="0px" viewBox="0 0 904 413" style="enable-background:new 0 0 904 413;" xml:space="preserve">
<g>
	<path d="M37.6,200.6c-3.6,0-6.7-1.3-9.2-3.8c-2.5-2.5-3.8-5.6-3.8-9.2v-62.9c0-3.1,1.1-5.7,3.2-7.9c2.1-2.2,4.8-3.3,7.8-3.3h1
		c2.9,0,5.4,0.9,7.6,2.8c2.2,1.9,3.5,4.2,4,7l0.1,0.9c0,0.2,0.1,0.3,0.4,0.3c0.2,0,0.4,0,0.5-0.1c4.2-4.2,8.3-7.4,12.3-9.6
		c4-2.2,8.7-3.4,14-3.4c10.9,0,18.6,4.3,23.2,13c0.2,0.4,0.5,0.6,0.8,0.7c0.3,0.1,0.7-0.1,1-0.4c4.2-4.2,8.3-7.4,12.4-9.8
		c4.1-2.3,8.7-3.5,13.8-3.5c9.2,0,16,3.1,20.5,9.3c4.5,6.2,6.7,14.9,6.7,26.2v40.8c0,3.6-1.3,6.7-3.8,9.2c-2.5,2.5-5.6,3.8-9.2,3.8
		h-1.2c-3.6,0-6.7-1.3-9.2-3.8c-2.5-2.5-3.8-5.6-3.8-9.2v-37.5c0-5.8-0.8-9.8-2.3-12c-1.5-2.2-4.1-3.4-7.7-3.4
		c-3.9,0-8.2,2.2-12.9,6.7c-0.7,0.7-1,1.5-1,2.5v43.6c0,3.6-1.3,6.7-3.8,9.2c-2.5,2.5-5.6,3.8-9.2,3.8h-1.3c-3.6,0-6.7-1.3-9.2-3.8
		c-2.5-2.5-3.8-5.6-3.8-9.2v-37.5c0-5.8-0.8-9.8-2.3-12c-1.5-2.2-4.1-3.4-7.7-3.4c-3.9,0-8.2,2.2-12.9,6.7c-0.7,0.7-1,1.5-1,2.5
		v43.6c0,3.6-1.3,6.7-3.8,9.2c-2.5,2.5-5.6,3.8-9.2,3.8H37.6z"/>
	<path d="M203.8,202.7c-9.3,0-16.1-3.1-20.5-9.2c-4.4-6.1-6.6-14.8-6.6-26.1v-41c0-3.6,1.3-6.7,3.8-9.2c2.5-2.5,5.6-3.8,9.2-3.8h1.2
		c3.6,0,6.7,1.3,9.2,3.8s3.8,5.6,3.8,9.2V164c0,5.9,0.8,9.9,2.3,12.2c1.5,2.2,4.1,3.4,7.7,3.4c2.9,0,5.4-0.6,7.5-1.8
		c2.1-1.2,4.2-3.2,6.3-6c0.6-0.7,0.9-1.6,0.9-2.7v-42.6c0-3.6,1.3-6.7,3.8-9.2c2.5-2.5,5.6-3.8,9.2-3.8h1.2c3.6,0,6.7,1.3,9.2,3.8
		c2.5,2.5,3.8,5.6,3.8,9.2v63.1c0,3.1-1.1,5.7-3.2,7.8c-2.1,2.1-4.8,3.2-7.8,3.2h-0.3c-3.1,0-5.8-1-8.2-3.1c-2.4-2-3.8-4.6-4.3-7.7
		l-0.1-0.9c-0.1-0.2-0.2-0.3-0.4-0.3c-0.2,0-0.4,0.1-0.4,0.3c-3.9,4.5-8,7.9-12.3,10.2C214.3,201.6,209.3,202.7,203.8,202.7z"/>
	<path d="M290.6,200.6c-3.6,0-6.7-1.3-9.2-3.8c-2.5-2.5-3.8-5.6-3.8-9.2v-62.9c0-3.1,1.1-5.7,3.2-7.9c2.1-2.2,4.8-3.3,7.8-3.3
		c3.2,0,6,1.1,8.3,3.2c2.3,2.1,3.7,4.8,4.1,7.8l0.4,3.9c0,0.2,0.1,0.3,0.4,0.3c0.2,0,0.4-0.1,0.5-0.3c2.9-5.3,6.4-9.4,10.6-12.3
		c4.2-2.9,8.5-4.5,12.9-4.8c0.2,0,0.4,0,0.6,0c3,0,5.3,1.3,7,4c1.4,2.1,2.1,4.3,2.1,6.7c0,0.9-0.1,1.8-0.3,2.8
		c-0.6,2.9-2.2,5.2-4.9,7c-2.6,1.8-5.8,2.9-9.3,3.4c-6.9,1-12.2,5.7-15.8,14c-0.4,0.9-0.6,1.8-0.6,2.8v35.3c0,3.6-1.3,6.7-3.8,9.2
		c-2.5,2.5-5.6,3.8-9.2,3.8H290.6z"/>
	<path d="M386.4,202.7c-5.6,0-10.9-1-16.1-3.1c-5.1-2.1-9.7-5-13.7-8.8c-4-3.8-7.2-8.6-9.5-14.4c-2.3-5.8-3.5-12.2-3.5-19.2
		c0-7,1.2-13.4,3.5-19.3c2.3-5.9,5.5-10.7,9.5-14.5c4-3.8,8.5-6.7,13.7-8.8c5.1-2.1,10.5-3.1,16.1-3.1c5.5,0,10.8,1,15.8,3.1
		c5.1,2.1,9.6,5,13.6,8.8c4,3.8,7.1,8.6,9.5,14.5c2.3,5.9,3.5,12.3,3.5,19.3c0,7-1.2,13.4-3.5,19.2c-2.3,5.8-5.5,10.6-9.5,14.4
		c-4,3.8-8.5,6.7-13.6,8.8C397.2,201.7,391.9,202.7,386.4,202.7z M386.4,180.8c4.9,0,8.5-2.1,11-6.2c2.4-4.1,3.7-9.9,3.7-17.4
		s-1.2-13.3-3.7-17.5c-2.4-4.2-6.1-6.3-11-6.3c-5,0-8.7,2.1-11.2,6.3c-2.5,4.2-3.7,10-3.7,17.5s1.2,13.3,3.7,17.4
		C377.7,178.7,381.4,180.8,386.4,180.8z"/>
	<path d="M459,200.6c-3.6,0-6.7-1.3-9.2-3.8c-2.5-2.5-3.8-5.6-3.8-9.2V91.4c0-3.6,1.3-6.7,3.8-9.2c2.5-2.5,5.6-3.8,9.2-3.8h0.4
		c3.6,0,6.7,1.3,9.2,3.8c2.5,2.5,3.8,5.6,3.8,9.2v54.9c0,0.3,0.1,0.4,0.3,0.4c0.2,0,0.3-0.1,0.4-0.3l18.2-22.7
		c2.5-3.2,5.6-5.7,9.3-7.5c3.7-1.8,7.6-2.7,11.7-2.7h3.6c2.5,0,4.3,1.2,5.4,3.6c0.4,0.9,0.6,1.7,0.6,2.5c0,1.4-0.5,2.6-1.5,3.7
		l-21.4,25c-0.6,0.8-0.6,1.6-0.1,2.4l25.1,39c0.8,1.2,1.2,2.4,1.2,3.7c0,1.2-0.3,2.3-0.9,3.4c-1.4,2.5-3.5,3.7-6.3,3.7h-3.6
		c-4,0-7.7-1-11.2-3.1c-3.5-2-6.2-4.8-8.2-8.3l-11.7-20.3c-0.1-0.4-0.4-0.6-0.7-0.6c-0.4,0-0.7,0.1-0.9,0.3l-8.4,9.6
		c-0.7,0.8-1,1.7-1,2.7v6.7c0,3.6-1.3,6.7-3.8,9.2c-2.5,2.5-5.6,3.8-9.2,3.8H459z"/>
	<path d="M565,202.7c-7.8,0-14-2.5-18.8-7.6c-4.7-5.1-7.1-11.4-7.1-18.8c0-9.1,3.7-16.2,11.2-21.3c7.5-5.1,19.4-8.6,35.7-10.5
		c1-0.1,1.4-0.6,1.2-1.6c-1-6.5-5.3-9.7-12.9-9.7c-4.2,0-8.8,1-13.8,3.1c-1.5,0.7-3,1-4.5,1c-1.1,0-2.2-0.2-3.4-0.6
		c-2.7-0.8-4.7-2.4-6-4.8c-0.8-1.6-1.2-3.2-1.2-4.9c0-1,0.1-2,0.4-3c0.8-2.7,2.4-4.6,4.9-5.8c9.7-4.5,19.2-6.7,28.5-6.7
		c23.5,0,35.3,13.3,35.3,39.8v38.4c0,3.1-1.1,5.7-3.3,7.8c-2.2,2.1-4.8,3.2-7.8,3.2h-3.1c-2.3,0-4.4-0.7-6.2-2.2
		c-1.8-1.4-3-3.3-3.5-5.6l-0.1-0.6c-0.1-0.2-0.2-0.3-0.4-0.3c-0.2,0-0.4,0.1-0.4,0.1C581.7,199.2,573.5,202.7,565,202.7z
		 M574.4,181.7c4.2,0,8.2-1.9,12.1-5.8c0.7-0.7,1-1.5,1-2.5v-10.9c0-0.4-0.1-0.7-0.4-1c-0.3-0.2-0.6-0.3-0.9-0.3h-0.1
		c-14,2.1-21.1,6.5-21.1,13.2c0,2.5,0.8,4.4,2.5,5.6C569.1,181,571.4,181.7,574.4,181.7z"/>
	<path d="M674.1,202.7c-12.7,0-23-4.1-31.2-12.3c-8.1-8.2-12.2-19.3-12.2-33.3c0-9.3,2.1-17.4,6.4-24.5c4.3-7.1,9.9-12.4,16.7-15.9
		c6.9-3.5,14.4-5.3,22.6-5.3c6,0,11.5,1.1,16.4,3.4c2.7,1.3,4.2,3.4,4.6,6.4c0.1,0.6,0.1,1.2,0.1,1.8c0,2.4-0.7,4.5-2.1,6.4
		l-0.6,0.6c-1.9,2.7-5.1,4-9.6,4c-1.5,0-3.1-0.1-4.9-0.4c-0.8-0.2-1.6-0.3-2.5-0.3c-5.9,0-10.6,2.1-14.1,6.4
		c-3.5,4.3-5.3,10.1-5.3,17.3c0,7.1,1.7,12.8,5.2,17.1c3.5,4.3,7.9,6.5,13.3,6.5c2.1,0,4.1-0.3,6.1-1c1.6-0.6,3.2-0.9,4.8-0.9
		c1.1,0,2.2,0.1,3.3,0.3c2.8,0.7,4.8,2.2,6.1,4.5c1.2,1.8,1.8,3.7,1.8,5.8c0,0.8-0.1,1.6-0.3,2.4c-0.6,3-2.2,5.1-4.8,6.4
		C688,201.2,681.3,202.7,674.1,202.7z"/>
	<path d="M755.6,202.7c-5.6,0-10.9-1-16.1-3.1c-5.1-2.1-9.7-5-13.7-8.8c-4-3.8-7.2-8.6-9.5-14.4c-2.3-5.8-3.5-12.2-3.5-19.2
		c0-7,1.2-13.4,3.5-19.3c2.3-5.9,5.5-10.7,9.5-14.5c4-3.8,8.5-6.7,13.7-8.8c5.1-2.1,10.5-3.1,16.1-3.1c5.5,0,10.8,1,15.8,3.1
		c5.1,2.1,9.6,5,13.6,8.8c4,3.8,7.1,8.6,9.5,14.5c2.3,5.9,3.5,12.3,3.5,19.3c0,7-1.2,13.4-3.5,19.2c-2.3,5.8-5.5,10.6-9.5,14.4
		c-4,3.8-8.5,6.7-13.6,8.8C766.3,201.7,761.1,202.7,755.6,202.7z M755.6,180.8c4.9,0,8.5-2.1,11-6.2c2.4-4.1,3.7-9.9,3.7-17.4
		s-1.2-13.3-3.7-17.5c-2.4-4.2-6.1-6.3-11-6.3c-5,0-8.7,2.1-11.2,6.3c-2.5,4.2-3.7,10-3.7,17.5s1.2,13.3,3.7,17.4
		C746.9,178.7,750.6,180.8,755.6,180.8z"/>
</g>
<g>
	<path d="M862.4,171.7c-0.2-4.3-1.1-8-2.9-10.9c-1.7-3-4.4-4.7-8-5.3c-0.2,5.3-0.5,10.7-1,16.1c-0.5,5.4-1.5,10.4-3.1,14.9
		c-1.5,4.5-3.4,8.1-5.7,10.8c-2.3,2.7-5.2,4-8.7,3.9c-2.6-0.1-5-0.9-7.3-2.5c-2.3-1.6-4.3-4.1-5.9-7.7c-1.6-3.6-2.4-8.5-2.5-14.7
		c0.1-6.1,1.3-11.6,3.7-16.5c2.3-4.9,5.5-8.9,9.4-12s8.4-4.8,13.4-5.3c5.4-0.4,10.3,0.4,14.8,2.3c4.5,1.9,8.2,5.2,11.1,9.9
		c2.9,4.6,4.5,10.6,4.8,17.8c0.1,6.2-0.7,11.5-2.4,15.9c-1.7,4.4-4,7.9-6.7,10.4c-2.8,2.5-5.8,4.2-9,5c-3.8,1-6.4-0.3-7.6-3.9
		c-0.9-3.9,0.5-6.4,4-7.5c1.6-0.4,3.6-2.2,6.1-5.4S862.4,178.7,862.4,171.7z M833.2,188.1c1.3,0.1,2.3-1,3.2-3.2
		c0.8-2.2,1.5-5,2-8.4c0.5-3.4,0.9-7,1.1-10.7c0.2-3.7,0.3-7.1,0.3-10.2c-2.4,0.8-4.4,2.4-6,4.7c-1.6,2.3-2.8,4.9-3.7,7.7
		c-0.8,2.9-1.3,5.6-1.4,8.1c-0.2,4.1,0.2,7.1,1.1,9C830.6,187,831.8,188,833.2,188.1z"/>
</g>
<g>
	<path d="M284.9,241.9h41.1c2.5,0,4.7,0.9,6.5,2.7c1.7,1.8,2.6,3.9,2.6,6.4c0,8.7-0.4,16.5-1.2,23.4c-0.5,4.8-1.4,8.1-2.7,9.8
		c-2.1,2.8-5.1,4.4-9.1,5c-1.4,0.2-3.4,0.4-6.2,0.4c-0.1,0-0.1,0-0.2,0c-2,0-3.9-0.7-5.5-2.1c-1.7-1.4-2.9-3.3-3.6-5.5
		c-0.1-0.6-0.2-1.2-0.2-1.7c0-1,0.3-2,0.9-2.9c0.9-1.4,2.2-2.1,3.9-2.1h0.1c0.9,0,1.9,0,3.1,0c1.7,0,2.9-0.4,3.7-1.3
		c1-1.1,1.7-6.5,2.1-16.3c0-0.3-0.1-0.5-0.3-0.8c-0.2-0.2-0.4-0.3-0.7-0.3h-11.2c-0.7,0-1.2,0.4-1.3,1.1c-1,6.6-2.8,12.3-5.3,17.3
		c-2.5,4.9-6.2,9.2-11.1,12.9c-1.5,1-3.1,1.5-4.8,1.5c-0.7,0-1.4-0.1-2.2-0.3c-2.5-0.7-4.6-2.1-6.3-4.2c-1.2-1.4-2.2-2.5-3.3-3.5
		c-0.1-0.1-0.2-0.2-0.3-0.1c-0.1,0.1-0.2,0.2-0.2,0.3c1.6,3.5,2.9,6.7,3.8,9.7c0.2,0.7,0.3,1.3,0.3,2c0,1-0.3,2-0.8,2.9
		c-0.8,1.6-2,2.8-3.7,3.6l-1.4,0.5c-1.1,0.5-2.1,0.5-3.1-0.1c-1-0.5-1.7-1.4-2.1-2.6c-0.1-0.4-0.3-0.5-0.7-0.4l-2.1,0.1
		c-0.7,0.1-1.1,0.5-1.1,1.2v5.9c0,0.2,0.1,0.4,0.3,0.5c0.2,0.1,0.4,0.2,0.7,0.1c1-0.3,2-0.4,3-0.4c1.3,0,2.6,0.3,3.9,0.9
		c2.3,1.1,3.9,2.8,4.7,5.2c0.7,2,1.4,3.9,2,5.8c0.2,0.7,0.3,1.4,0.3,2c0,1-0.3,2-0.8,2.9c-0.8,1.6-2.1,2.7-3.8,3.3
		c-0.7,0.3-1.3,0.4-1.8,0.4c-0.9,0-1.8-0.3-2.6-0.8c-1.5-0.8-2.5-2-2.9-3.6c-0.7-2.4-1.5-5.2-2.6-8.6c0-0.1-0.1-0.1-0.2-0.1
		s-0.2,0-0.2,0.1v23.4c0,1.9-0.7,3.5-2.1,4.9c-1.4,1.4-3,2.1-4.9,2.1c-1.9,0-3.6-0.7-4.9-2.1c-1.4-1.4-2.1-3-2.1-4.9v-24.4h-0.1
		c-0.8,6.3-2,12-3.5,17.3c-0.5,1.7-1.6,2.8-3.3,3.5c-0.7,0.3-1.4,0.4-2.2,0.4c-0.9,0-1.8-0.2-2.7-0.7c-1.7-0.8-2.9-2.1-3.6-3.8
		c-0.4-1-0.7-2.1-0.7-3.1c0-0.7,0.1-1.3,0.2-2.1c0.8-2.9,1.4-6.2,2-10c0.4-2.5,1.6-4.6,3.6-6.1c1.6-1.2,3.3-1.8,5.1-1.8
		c0.6,0,1.1,0.1,1.6,0.2l2.4,0.4c0.3,0,0.5-0.1,0.8-0.3c0.2-0.2,0.3-0.4,0.3-0.7v-4.9c0-0.3-0.1-0.5-0.3-0.8
		c-0.2-0.2-0.5-0.3-0.8-0.3l-7.4,0.5c-0.2,0-0.4,0-0.5,0c-1.7,0-3.3-0.6-4.6-1.7c-1.5-1.2-2.4-2.8-2.5-4.8c-0.1-0.2-0.1-0.5-0.1-0.8
		c0-1.6,0.5-3,1.6-4.2c1.3-1.4,2.9-2.2,4.8-2.3h0.5c0.6,0,1-0.2,1.4-0.7c0.9-1.2,1.9-2.5,2.8-3.8c0.4-0.6,0.5-1.2,0.1-1.8
		c-2-2.8-4.5-5.8-7.3-9c-1.3-1.4-2-3.1-2.2-5.1c-0.1-0.2-0.1-0.5-0.1-0.8c0-1.6,0.5-3.1,1.4-4.6l2.4-3.5c0.4-0.5,0.9-0.8,1.5-0.9
		c0.7-0.1,1.2,0.1,1.7,0.5c0.1,0.1,0.3,0.1,0.3-0.1c1.7-3.8,3.3-7.6,4.8-11.5c0.7-1.9,2-3.3,3.8-4.1c1-0.5,2.1-0.8,3.1-0.8
		c0.8,0,1.6,0.1,2.4,0.4c1.9,0.7,3.1,1.9,3.8,3.8c0.3,0.8,0.4,1.6,0.4,2.3c0,1-0.3,2-0.8,3c-3.5,6.7-6.3,11.7-8.4,15.1
		c-0.4,0.6-0.3,1.2,0.1,1.7c0.3,0.4,0.6,0.7,0.9,1.1c0.1,0.2,0.3,0.3,0.6,0.3c0.3,0,0.5-0.1,0.6-0.4c2-3.3,3.8-6.5,5.4-9.7
		c0.9-1.7,2.4-2.9,4.2-3.6c0.9-0.4,1.7-0.5,2.5-0.5c1,0,2,0.3,3,0.8c1.7,0.7,2.8,2,3.4,3.8c0.1,0.6,0.2,1.2,0.2,1.7
		c0,1.2-0.4,2.2-1.1,3.3c-3.2,4.8-6.3,9.3-9.4,13.6c-0.1,0.1-0.1,0.2,0,0.3c0.1,0.1,0.2,0.2,0.3,0.2l0.8-0.3c1-0.4,2.1-0.7,3.1-0.7
		c0.9,0,1.9,0.1,2.8,0.4c2,0.7,3.4,2.1,4.3,4c0.2,0.5,0.6,0.7,1.2,0.4c5.4-2.6,9.3-5.7,11.8-9.4c2.5-3.7,4.3-8,5.2-13.1
		c0-0.3-0.1-0.5-0.3-0.8c-0.2-0.2-0.4-0.3-0.7-0.3h-5c-2,0-3.8-0.7-5.2-2.2c-1.4-1.4-2.2-3.2-2.2-5.3c0-2.1,0.7-3.8,2.2-5.2
		C281.2,242.6,282.9,241.9,284.9,241.9z M255.1,283.9c-0.1,0.1-0.1,0.3,0,0.5c0.1,0.2,0.2,0.3,0.4,0.3l5.4-0.2
		c0.3,0,0.5-0.1,0.6-0.3c0.1-0.2,0.1-0.4,0.1-0.7c-1-2.3-1.6-3.7-1.7-4.1c-0.1-0.2-0.3-0.3-0.6-0.3c-0.3,0-0.5,0.1-0.6,0.2
		C258,280.2,256.8,281.7,255.1,283.9z M288.7,342.3c-2,0-3.8-0.7-5.2-2.2c-1.4-1.4-2.2-3.2-2.2-5.2v-31c0-2.6,0.9-4.8,2.8-6.7
		c1.8-1.8,4.1-2.8,6.7-2.8h33c2.6,0,4.8,0.9,6.7,2.8c1.8,1.8,2.8,4.1,2.8,6.7v30.2c0,2.2-0.8,4-2.3,5.5s-3.3,2.3-5.4,2.3h-4.5
		c-0.9,0-1.7-0.3-2.4-1c-0.7-0.7-1-1.4-1-2.4c0-0.3-0.1-0.4-0.4-0.4h-20.7c-0.3,0-0.4,0.1-0.4,0.4c0,1.1-0.4,2-1.1,2.7
		c-0.7,0.7-1.6,1.1-2.7,1.1H288.7z M317.7,309.6c0-0.7-0.4-1.1-1.1-1.1h-19.4c-0.7,0-1.1,0.4-1.1,1.1v13.2c0,0.7,0.4,1.1,1.1,1.1
		h19.4c0.7,0,1.1-0.4,1.1-1.1V309.6z"/>
	<path d="M382,244c1.6-2.2,3.5-4.1,5.9-5.4c2.3-1.4,4.8-2.1,7.5-2.1c2.7,0,5.2,0.7,7.6,2c2.4,1.3,4.4,3.1,6,5.4
		c9.2,12.6,20.3,22,33.4,28.3c2,1,3.2,2.6,3.8,4.8c0.1,0.7,0.2,1.3,0.2,1.8c0,1.4-0.4,2.8-1.3,4.1c-1.5,2.2-3.5,3.6-6,4.2
		c-0.9,0.2-1.7,0.3-2.5,0.3c-1.5,0-3-0.4-4.6-1.2c-2.6-1.6-5.2-3.3-7.8-5.1c-0.2-0.1-0.4-0.2-0.6-0.1c-0.2,0.1-0.3,0.3-0.3,0.5v52.4
		c0,2.4-0.8,4.4-2.5,6c-1.7,1.6-3.7,2.4-6,2.4c-2.3,0-4.3-0.8-6-2.4c-1.7-1.6-2.5-3.6-2.5-6v-46.1c0-2.6,0.9-4.8,2.8-6.7
		s4.1-2.8,6.7-2.8h3.6c0.2,0,0.3-0.1,0.4-0.2c0-0.1,0-0.3-0.2-0.4c-10.1-7.8-17.8-15.8-23.1-23.9c-0.1-0.2-0.3-0.3-0.5-0.3
		c-0.2,0-0.4,0.1-0.5,0.3c-5.4,8.5-13.3,16.7-23.6,24.6c-0.1,0.1-0.1,0.2-0.1,0.4c0,0.2,0.2,0.3,0.4,0.3h3.9c2.6,0,4.8,0.9,6.7,2.8
		s2.8,4.1,2.8,6.7v3.3c0,4.1-0.2,7.9-0.5,11.2c-0.4,3.4-1.1,7.1-2.2,11.3c-1.1,4.2-2.8,8.2-5.2,12c-2.4,3.8-5.3,7.4-8.8,10.6
		c-1.7,1.4-3.7,2.2-5.9,2.2c-0.3,0-0.6,0-0.9,0c-2.5-0.2-4.7-1.2-6.8-2.9c-1.6-1.4-2.4-3.2-2.4-5.3c0-2.1,0.8-3.9,2.4-5.3
		c2.9-2.5,5.3-5.3,7.2-8.2c1.9-3,3.3-6,4.2-9.1c0.9-3.1,1.4-5.9,1.7-8.4c0.3-2.5,0.4-5.4,0.4-8.5V282c0-0.2-0.1-0.4-0.3-0.5
		c-0.2-0.1-0.4-0.1-0.5,0.1c-2.7,1.9-5.4,3.6-8.1,5.2c-1.3,0.8-2.7,1.2-4.1,1.2c-0.7,0-1.5-0.1-2.3-0.3c-2.2-0.6-4-1.8-5.4-3.8
		c-0.9-1.3-1.4-2.7-1.4-4.1c0-0.5,0-1,0.1-1.5c0.4-2,1.4-3.5,3.3-4.6c6.4-3.8,12.3-8.2,17.9-13.5C373.4,254.9,378.1,249.5,382,244z"
		/>
	<path d="M457.6,292.4c2.9-5.4,5.4-10,7.4-13.8c2-3.8,4-7.5,6-11.1c2-3.6,3.5-6.3,4.6-8.2c1.4-2.2,2.8-3.8,4.3-4.7
		c1.5-0.9,2.8-1.4,3.9-1.5s1.6-0.2,1.6-0.4c2.2,0.2,4,0.7,5.4,1.5s2.7,2,3.9,3.6c0.9,1.4,2.6,4.3,5.2,8.7c2.6,4.3,5.5,9.3,8.9,14.8
		c3.4,5.5,6.6,11,9.8,16.3c3.1,5.3,6.3,10.8,9.5,16.3c3.4,5,2.9,9.4-1.6,13.4c-4.6,2.8-8.7,1.6-12.2-3.6c-17.1-29-25.9-44-26.5-45
		c-1-2-1.6-3.1-1.9-3.3c-0.3-0.3-0.5-0.1-0.8,0.4c-0.3,0.5-0.8,1.5-1.5,2.8c-0.7,0.9-1.9,3.1-3.9,6.5c-1.9,3.4-4.9,8.8-8.8,16.3
		c-2.5,4.3-6.3,5.1-11.3,2.5C456,300.7,455.5,296.9,457.6,292.4z M512.7,253.4c2.3-2.3,5.1-3.5,8.5-3.5c3.3,0,6.2,1.2,8.5,3.5
		c2.4,2.4,3.5,5.2,3.5,8.5c0,3.3-1.2,6.2-3.5,8.5c-2.4,2.3-5.2,3.5-8.5,3.5c-3.3,0-6.2-1.2-8.5-3.5c-2.3-2.3-3.5-5.1-3.5-8.5
		C509.2,258.7,510.4,255.8,512.7,253.4z M526.6,262c0-1.6-0.5-2.9-1.6-3.9c-1.1-1-2.3-1.5-3.9-1.5s-2.8,0.5-3.8,1.5
		c-1,1-1.5,2.3-1.5,3.9c0,1.5,0.5,2.8,1.5,3.8c1,1,2.3,1.5,3.8,1.5s2.8-0.5,3.9-1.5C526,264.8,526.6,263.5,526.6,262z"/>
	<path d="M541.2,291.1c0-5.6,2.8-8.5,8.5-8.5h33.2c5.6,0,8.5,2.8,8.5,8.5c0,5.7-2.8,8.6-8.5,8.6h-33.2c-5.6,0-8.5-2.8-8.5-8.5V291.1
		z"/>
	<path d="M671.7,280.8c-2,6.7-5.7,14.1-11.3,22c-5.6,7.9-11.8,14.4-18.7,19.3c-6.8,5-16.7,8.8-29.5,11.7c-5,0.9-8.2-1.4-9.6-6.9
		c-0.7-5.7,1.6-9,6.9-10c9.3-1.6,16.9-4.5,22.6-8.8c5.7-4.3,10.7-9.2,14.9-14.9c4.2-5.7,7.4-11.7,9.4-18c1.8-4.4,5.3-6,10.4-4.8
		C671.8,272.6,673.4,276.1,671.7,280.8z M602.5,258.7c0-5.6,2.8-8.5,8.5-8.5h16.6c5.6,0,8.5,2.8,8.5,8.5c0,5.7-2.8,8.6-8.5,8.6H611
		c-5.6,0-8.5-2.8-8.5-8.5V258.7z M602.5,285.1c0-5.6,2.8-8.5,8.5-8.5h16.6c5.6,0,8.5,2.8,8.5,8.5c0,5.7-2.8,8.6-8.5,8.6H611
		c-5.6,0-8.5-2.8-8.5-8.5V285.1z M657.4,253.6c0-2.5,1.2-3.7,3.7-3.7c2.5,0,3.8,1.2,3.8,3.7v8.2c0,2.5-1.2,3.7-3.7,3.7
		c-2.5,0-3.8-1.2-3.8-3.7V253.6z M669.1,253.6c0-2.5,1.2-3.7,3.7-3.7c2.5,0,3.8,1.2,3.8,3.7v8.2c0,2.5-1.2,3.7-3.7,3.7
		c-2.5,0-3.8-1.2-3.8-3.7V253.6z"/>
</g>
</svg>
